<?xml version="1.0" standalone="no"?>
<!DOCTYPE svg PUBLIC "-//W3C//DTD SVG 20010904//EN"
 "http://www.w3.org/TR/2001/REC-SVG-20010904/DTD/svg10.dtd">
<svg version="1.0" xmlns="http://www.w3.org/2000/svg"
 width="2474.000000pt" height="917.000000pt" viewBox="0 0 2474.000000 917.000000"
 preserveAspectRatio="xMidYMid meet">

<g transform="translate(0.000000,917.000000) scale(0.100000,-0.100000)"
fill="#000000" stroke="none">
<path d="M3500 7047 l0 -84 98 -45 c117 -55 275 -107 557 -183 261 -71 431
-125 560 -180 116 -50 265 -130 282 -152 9 -12 2 -34 -34 -111 -25 -54 -47
-104 -50 -113 -3 -11 49 -64 166 -170 182 -163 211 -201 211 -276 0 -65 -28
-137 -170 -446 -112 -244 -131 -292 -122 -311 5 -12 34 -51 64 -87 156 -186
239 -323 294 -486 38 -113 53 -212 54 -349 1 -353 -138 -653 -439 -954 -192
-191 -350 -292 -846 -539 -317 -158 -506 -263 -590 -326 l-35 -27 0 -83 0 -83
142 94 c105 71 235 142 512 279 551 274 730 387 930 590 282 285 434 591 467
932 31 332 -61 628 -285 916 -131 170 -121 150 -102 197 9 22 60 136 112 253
124 272 143 322 150 405 9 91 -13 164 -65 224 -22 24 -94 91 -160 148 -82 71
-121 111 -121 124 0 12 20 66 45 120 25 55 45 105 45 113 0 30 -261 174 -457
252 -126 50 -276 98 -483 155 -311 85 -582 189 -697 266 l-33 22 0 -85z"/>
<path d="M3296 7074 c-14 -14 -16 -108 -16 -887 l0 -872 100 -100 c94 -94 101
-99 127 -89 20 7 29 17 31 37 3 23 -10 42 -77 111 l-81 82 0 845 c0 748 -2
847 -16 867 -18 26 -46 28 -68 6z"/>
<path d="M2807 7012 c-16 -17 -17 -96 -18 -928 l0 -909 -190 -145 -189 -144 0
-851 0 -850 435 -184 435 -184 0 -279 c0 -274 0 -279 -20 -273 -11 3 -286 127
-612 276 l-593 269 0 1191 0 1192 225 166 225 167 3 638 c2 584 1 641 -14 658
-21 22 -47 23 -68 2 -14 -14 -16 -85 -16 -632 l-1 -617 -173 -127 c-96 -71
-176 -128 -180 -128 -3 0 -6 281 -6 625 l0 625 -24 11 c-17 8 -29 8 -45 0
l-21 -12 0 -929 c0 -512 -3 -930 -6 -930 -4 0 -73 35 -155 78 l-149 77 0 651
c0 492 -3 653 -12 662 -19 19 -66 15 -78 -7 -7 -14 -9 -240 -8 -692 l3 -671
200 -107 200 -106 3 -293 2 -294 -112 61 c-62 33 -132 70 -155 83 l-43 23 0
147 c0 120 -3 149 -16 162 -21 21 -47 20 -68 -3 -14 -16 -16 -41 -14 -192 l3
-174 203 -108 202 -109 0 -219 c0 -120 -3 -219 -7 -219 -4 0 -172 87 -375 193
l-368 192 0 827 c0 738 -2 828 -16 842 -21 21 -47 20 -68 -2 -15 -17 -16 -89
-14 -872 l3 -854 420 -220 420 -221 3 -300 2 -300 692 -314 c381 -173 700
-316 710 -319 17 -4 18 33 18 827 0 818 0 831 -20 851 -24 24 -29 24 -58 4
-21 -15 -22 -21 -22 -170 0 -85 -2 -154 -5 -154 -3 0 -88 42 -190 92 l-185 93
0 505 c0 380 -3 509 -12 518 -19 19 -66 15 -78 -7 -6 -13 -10 -203 -10 -548
l0 -528 240 -120 240 -120 0 -212 c0 -117 -4 -213 -9 -213 -4 0 -176 72 -382
159 l-374 160 -3 795 -2 795 190 146 190 146 0 933 c0 891 -1 934 -18 949 -24
22 -45 21 -65 -1z"/>
<path d="M3649 6696 c-97 -26 -151 -79 -163 -158 -17 -119 54 -208 164 -208
86 0 142 61 109 119 -16 28 -46 43 -36 17 4 -9 9 -22 12 -29 3 -8 -3 -24 -13
-37 -27 -34 -102 -33 -138 1 -53 50 -68 113 -39 169 51 99 229 117 394 39 131
-61 239 -159 570 -521 171 -187 208 -222 315 -292 l66 -43 -57 -44 c-37 -29
-58 -40 -61 -31 -9 29 -55 71 -87 82 -54 18 -94 3 -147 -51 -26 -27 -52 -49
-58 -49 -6 0 -15 12 -20 26 -12 30 -34 27 -38 -5 -5 -30 25 -61 59 -61 18 0
39 -12 63 -36 28 -28 42 -35 68 -32 38 4 55 38 18 38 -40 0 -60 18 -60 55 0
24 7 39 26 54 37 29 70 26 106 -9 l30 -31 -7 -87 c-7 -97 1 -130 39 -163 l25
-22 -62 -36 c-96 -55 -186 -151 -234 -248 -53 -105 -67 -174 -60 -288 11 -194
61 -281 293 -510 251 -248 297 -329 298 -520 1 -99 -2 -116 -26 -167 -69 -148
-212 -229 -379 -215 -112 9 -200 60 -240 139 -76 149 15 350 160 352 61 1 81
-15 81 -65 0 -25 5 -39 13 -39 22 0 37 23 37 58 0 39 -45 92 -78 92 -35 0 -50
10 -45 30 16 60 -44 111 -105 89 -32 -11 -49 -36 -34 -51 5 -5 20 -4 35 3 21
9 30 9 42 -1 27 -22 12 -52 -50 -100 -35 -27 -73 -68 -92 -99 -88 -146 -32
-340 120 -417 17 -9 33 -18 35 -19 2 -2 -13 -28 -33 -58 -27 -41 -44 -56 -67
-61 -58 -12 -98 -46 -160 -142 -52 -79 -64 -91 -71 -77 -16 31 -40 43 -84 43
-57 0 -93 -33 -93 -85 0 -28 4 -35 19 -35 12 0 23 11 29 29 23 66 92 54 92
-16 0 -54 -37 -118 -118 -205 -99 -105 -190 -152 -296 -152 -121 -1 -186 50
-186 144 0 79 97 133 143 82 19 -21 22 -57 7 -67 -17 -11 -11 -35 9 -35 45 0
67 85 33 126 -38 48 -99 56 -169 25 -57 -26 -76 -66 -71 -145 4 -70 23 -102
81 -137 20 -13 36 -26 34 -29 -1 -3 -33 -51 -70 -108 -38 -57 -67 -111 -65
-119 5 -29 28 -25 45 7 10 18 44 71 75 120 l57 88 88 4 c79 4 96 8 163 43 113
60 197 150 294 315 146 251 171 280 244 280 45 0 97 -49 87 -82 -15 -47 -36
-61 -88 -54 -38 4 -49 2 -54 -11 -15 -39 83 -58 137 -26 34 20 50 52 50 101
-1 45 -18 78 -53 101 l-26 17 35 52 35 52 62 -6 c122 -12 249 30 335 110 95
89 136 205 130 369 -3 91 -1 100 18 113 17 12 23 12 38 1 10 -8 19 -24 20 -38
1 -14 7 -24 16 -24 23 0 26 72 4 96 -21 23 -80 25 -111 4 -19 -14 -21 -13 -27
9 -10 39 -99 167 -170 244 l-68 72 64 0 c39 0 78 7 104 19 l40 18 28 -23 c15
-14 40 -24 57 -24 41 0 81 41 77 78 -4 38 -31 39 -45 2 -7 -20 -18 -30 -32
-30 -31 0 -41 28 -29 87 6 29 7 68 4 87 -9 45 -50 95 -96 113 -50 21 -70 42
-70 74 0 30 23 49 59 49 12 0 21 7 21 15 0 11 -11 15 -43 15 -33 0 -49 -6 -67
-25 -20 -21 -22 -31 -17 -75 4 -30 2 -50 -4 -50 -5 0 -21 -11 -34 -25 -39 -38
-34 -145 6 -145 16 0 17 6 12 49 -5 43 -3 50 18 65 38 26 96 21 129 -13 100
-100 -2 -239 -159 -216 -73 10 -127 42 -191 113 -106 118 -150 229 -150 382 0
237 143 427 385 514 93 34 125 68 125 137 0 40 -5 55 -25 74 -25 25 -59 32
-84 16 -18 -11 -5 -31 19 -31 28 0 52 -42 44 -74 -8 -32 -49 -66 -80 -66 -50
0 -80 25 -97 82 -19 58 58 157 165 213 32 17 58 33 58 37 0 4 -10 10 -22 13
-31 10 -128 69 -155 95 -26 24 -30 71 -8 90 21 18 44 -3 37 -35 -3 -17 0 -25
10 -25 44 0 52 68 12 99 -32 25 -45 26 -85 6 -19 -11 -32 -26 -36 -45 l-6 -30
-39 35 c-61 56 -241 254 -256 282 -16 30 -9 78 15 105 18 20 63 24 81 6 20
-20 15 -59 -8 -65 -30 -8 -21 -39 10 -35 67 7 80 104 21 149 -22 17 -86 16
-120 -1 -27 -14 -51 -53 -51 -81 0 -8 -2 -15 -5 -15 -3 0 -52 46 -108 103
-174 176 -329 274 -467 296 -80 13 -103 13 -161 -3z"/>
<path d="M7563 6213 c-4 -10 -285 -742 -626 -1628 -341 -885 -622 -1618 -624
-1627 -5 -16 5 -18 108 -18 l114 0 570 1483 c313 815 597 1555 631 1645 l62
162 -114 0 c-100 0 -115 -2 -121 -17z"/>
<path d="M3681 5877 c-53 -31 -66 -98 -26 -145 l25 -30 0 -345 0 -344 134 -89
c119 -79 136 -93 146 -126 19 -67 95 -88 149 -42 26 22 31 33 31 70 0 62 -32
94 -95 94 -39 0 -59 9 -155 73 l-110 72 0 318 c0 304 1 320 20 344 28 35 26
95 -2 128 -28 31 -83 41 -117 22z"/>
<path d="M19080 4425 l0 -1225 340 0 340 0 0 1225 0 1225 -340 0 -340 0 0
-1225z"/>
<path d="M8860 5530 l0 -90 28 -1 c15 0 90 -6 167 -12 l140 -12 3 -1002 2
-1001 -37 -6 c-21 -3 -76 -8 -123 -11 -47 -3 -106 -8 -132 -11 l-48 -6 0 -89
0 -89 688 0 c746 0 804 3 960 55 115 39 199 90 277 169 82 83 118 145 145 252
24 94 27 263 5 343 -48 182 -206 346 -389 404 l-74 23 81 38 c140 66 255 200
292 341 18 70 20 241 4 317 -55 255 -265 412 -629 468 -38 6 -331 10 -712 10
l-648 0 0 -90z m1390 -154 c83 -19 187 -64 237 -102 78 -59 123 -168 124 -296
1 -217 -114 -355 -349 -421 -71 -19 -108 -21 -444 -25 l-368 -4 0 430 c0 236
3 432 8 436 4 4 167 6 362 3 284 -4 370 -8 430 -21z m93 -1069 c179 -52 299
-162 342 -311 24 -81 17 -229 -14 -308 -42 -109 -146 -198 -289 -246 l-77 -27
-427 -3 -428 -3 0 461 0 461 418 -3 c356 -4 425 -7 475 -21z"/>
<path d="M20980 5531 l0 -89 63 -6 c34 -3 100 -8 147 -11 47 -4 95 -8 108 -11
l22 -4 0 -999 0 -999 -42 -5 c-24 -4 -83 -9 -133 -12 -49 -3 -107 -8 -127 -11
l-38 -6 0 -89 0 -89 460 0 460 0 0 90 c0 50 -1 90 -2 90 -2 1 -74 7 -161 14
-87 8 -160 16 -163 18 -2 3 -3 411 -2 907 l3 902 730 -1010 730 -1010 127 -1
128 0 2 1108 3 1107 140 12 c77 6 152 12 168 12 l27 1 0 90 0 90 -465 0 -465
0 0 -90 c0 -86 1 -90 23 -91 12 0 87 -6 167 -12 l145 -12 3 -903 c1 -544 -2
-902 -7 -900 -5 1 -335 453 -733 1003 l-724 1000 -297 3 -297 2 0 -89z"/>
<path d="M15707 4342 c-301 -670 -547 -1222 -547 -1225 0 -4 147 -6 326 -5
l325 3 102 243 102 242 571 0 572 0 100 -242 100 -243 332 -3 c314 -2 332 -1
328 15 -3 10 -250 562 -549 1226 l-544 1207 -336 0 -336 0 -546 -1218z m1243
-252 c0 -12 -716 -14 -723 -2 -3 5 285 701 353 852 10 22 30 -20 191 -408 98
-238 179 -437 179 -442z"/>
<path d="M12120 5447 l0 -94 162 -12 c89 -7 166 -15 170 -17 11 -7 10 -1992
-1 -1998 -4 -3 -81 -11 -170 -18 l-161 -12 0 -93 0 -93 465 0 466 0 -3 93 -3
92 -140 12 c-77 6 -152 12 -167 12 l-28 1 0 425 0 424 363 3 c199 2 364 2 366
1 2 -1 104 -239 226 -530 l224 -528 215 -3 216 -2 0 93 0 94 -117 7 c-71 4
-122 12 -129 19 -22 24 -387 878 -378 886 5 4 38 18 74 30 151 53 289 170 356
302 53 107 67 180 62 344 -4 120 -8 151 -31 215 -88 248 -310 395 -648 430
-59 6 -373 10 -745 10 l-644 0 0 -93z m1466 -140 c241 -63 354 -210 354 -455
0 -205 -71 -331 -225 -403 -120 -56 -163 -61 -602 -66 l-403 -5 0 477 0 477
408 -5 c333 -3 418 -7 468 -20z"/>
<path d="M3297 5023 c-4 -3 -7 -155 -7 -337 l1 -331 141 -85 c127 -76 142 -88
159 -126 20 -48 43 -64 89 -64 44 0 69 16 85 53 18 44 8 82 -28 113 -25 21
-38 25 -68 21 -32 -4 -51 4 -160 72 l-124 76 -3 294 c-1 197 -6 299 -13 308
-12 13 -61 18 -72 6z"/>
<path d="M3695 3715 c-32 -31 -34 -91 -5 -128 18 -22 20 -40 20 -166 0 -128
-2 -144 -20 -163 -31 -34 -27 -93 9 -129 33 -32 67 -37 110 -14 53 27 65 111
20 151 -17 15 -19 31 -19 161 0 86 4 143 10 143 14 0 40 55 40 84 0 13 -12 38
-26 55 -22 26 -33 31 -70 31 -34 0 -51 -6 -69 -25z"/>
</g>
</svg>
